Coordinates
version=1
nRows=32
nColumns=20
inDegrees=yes

Units are S.I. units (second, meters, Newtons, ...)
Angles are in degrees.

endheader
time	pelvis_tilt	pelvis_list	pelvis_rotation	pelvis_tx	pelvis_ty	pelvis_tz	hip_flexion_r	hip_adduction_r	hip_rotation_r	knee_angle_r	ankle_angle_r	hip_flexion_l	hip_adduction_l	hip_rotation_l	knee_angle_l	ankle_angle_l	lumbar_extension	lumbar_bending	lumbar_rotation
      0.00000000	      5.37175696	     -5.33802174	     -4.58920676	      0.60841068	      1.01502175	      0.04146869	    -21.32619884	      5.05919546	      7.24114493	     -9.80356478	     13.87502787	     18.33371930	     -7.23911650	     -5.02522617	     -4.66370989	     -0.84375776	    -17.85770501	      2.97298882	      3.89559829
      0.01700000	      4.79495605	     -4.99393542	     -4.79199192	      0.60907395	      1.01378252	      0.03920353	    -20.85816094	      4.50976220	      7.37192034	    -11.77851243	     14.08459788	     19.27992750	     -6.70936348	     -4.78068807	     -7.01817668	     -2.23790430	    -17.14309403	      2.38261386	      3.88471430
      0.03300000	      4.40587724	     -4.63384318	     -4.74892583	      0.61063192	      1.01285135	      0.03628212	    -20.67020432	      3.97665907	      7.32475712	    -13.62581061	     13.94752455	     19.91298179	     -6.06479061	     -4.53783880	     -9.23558813	     -3.51936790	    -16.58302790	      1.82138357	      3.71415675
      0.05000000	      4.08014746	     -4.31196363	     -4.99786758	      0.61230581	      1.01225109	      0.03390065	    -20.21829003	      3.44015071	      7.53413810	    -16.12123060	     13.67342920	     20.42611764	     -5.63537065	     -4.59104858	    -11.56625653	     -4.40097010	    -16.12946859	      1.08242937	      3.54884588
      0.06700000	      4.22975107	     -4.01788745	     -5.00508779	      0.61488500	      1.01277266	      0.03163937	    -20.15813010	      3.00133537	      7.44022635	    -18.80921454	     12.81237969	     20.38992480	     -5.20770799	     -4.42080647	    -14.02019082	     -4.66815875	    -16.01238972	      0.35882785	      3.43431686
      0.08300000	      4.33086594	     -3.68919716	     -4.78846602	      0.61772302	      1.01380694	      0.02872890	    -19.61412622	      2.61802603	      6.91415771	    -22.19272325	     11.48445170	     20.06048086	     -4.66050691	     -4.07978319	    -15.87235448	     -4.68314844	    -15.87143017	     -0.30316228	      3.35167758
      0.10000000	      4.58470518	     -3.25654850	     -4.75739458	      0.62063152	      1.01535286	      0.02569409	    -18.57317826	      2.04106356	      6.22045887	    -26.60387627	      9.63301358	     19.48085010	     -4.06975966	     -4.05796727	    -17.77262645	     -4.14984055	    -15.86665128	     -1.08509212	      3.24389491
      0.11700000	      4.83454665	     -2.92401939	     -4.37663943	      0.62324890	      1.01744405	      0.02195986	    -17.06090462	      1.56210692	      4.78123541	    -31.49687677	      6.77892701	     18.65863717	     -3.44198037	     -3.77192852	    -19.12677791	     -3.48042936	    -15.84995130	     -1.61458740	      2.74750529
      0.13300000	      4.83431618	     -2.50690093	     -4.31807563	      0.62521656	      1.01940458	      0.01870250	    -14.56806176	      0.74833812	      3.12983139	    -37.16090455	      3.14178026	     17.81600618	     -2.82700899	     -3.89048420	    -19.97507254	     -2.66342293	    -15.64192145	     -2.29768822	      2.46255252
      0.15000000	      4.87204204	     -2.02103750	     -4.31341942	      0.62642069	      1.02173975	      0.01489330	    -11.73115325	     -0.45380718	      1.17380720	    -42.86986776	     -1.13021401	     16.59537092	     -2.06690029	     -4.17332084	    -20.08125685	     -1.89620910	    -15.50889884	     -2.81551229	      2.36953514
      0.16700000	      5.00006241	     -1.52504441	     -3.95030589	      0.62787268	      1.02431806	      0.01096441	     -9.09173981	     -1.84804687	     -1.27246207	    -47.95670498	     -5.19324200	     15.15727910	     -1.17292569	     -4.12163273	    -19.91685651	     -1.03941751	    -15.52053033	     -3.37604431	      1.46136217
      0.18300000	      5.08364604	     -0.78285563	     -4.24387419	      0.62742067	      1.02675073	      0.00723274	     -6.06511991	     -3.77816518	     -2.93327886	    -53.04946705	     -7.75595941	     13.57584959	     -0.11932567	     -4.68690477	    -19.22085678	     -0.40510811	    -15.60843610	     -4.17864569	      1.31560367
      0.20000000	      5.11737148	     -0.23228878	     -4.21044847	      0.62704230	      1.02901983	      0.00343200	     -3.24177830	     -5.39268031	     -4.46281912	    -57.51702957	     -8.36252238	     12.12952732	      0.81227843	     -4.77505561	    -18.67242832	      0.33569733	    -15.54830111	     -4.66337540	      0.48492223
      0.21700000	      5.07927805	      0.11135087	     -4.12902490	      0.62604508	      1.03119564	     -0.00032685	     -0.45250022	     -6.60422211	     -5.56545597	    -61.47294744	     -7.16831647	     10.76422889	      1.52340378	     -4.72023176	    -18.09125437	      1.02077501	    -15.51439572	     -4.86718342	      0.19210367
      0.23300000	      5.19807925	      0.14428471	     -3.61931151	      0.62591053	      1.03404516	     -0.00414189	      1.71567533	     -7.26888822	     -6.77903423	    -64.42660301	     -5.10401433	      9.05278545	      1.96550493	     -4.16807303	    -17.27178686	      1.63954852	    -15.59748061	     -4.66182999	     -0.75512209
      0.25000000	      5.40534474	      0.23498299	     -3.45660244	      0.62433452	      1.03678621	     -0.00682547	      3.99483703	     -7.72528961	     -7.24991724	    -66.96010963	     -2.84356446	      7.20289272	      2.35955358	     -3.95175556	    -16.20015482	      2.07363603	    -15.80031850	     -4.65119209	     -1.33587759
      0.26700000	      5.29908095	     -0.09255063	     -2.91300170	      0.62295220	      1.03898332	     -0.00979062	      6.30664645	     -7.57661600	     -8.00152277	    -68.54611160	     -1.05783032	      5.76534146	      2.29773519	     -3.33941338	    -15.30943758	      2.61314872	    -15.69820335	     -4.00578535	     -2.08565240
      0.28300000	      5.40889743	     -0.38065842	     -2.37068693	      0.62110926	      1.04121517	     -0.01203541	      8.38702051	     -7.20473445	     -8.39740682	    -69.45391496	      0.20185452	      4.11883518	      2.20616894	     -2.77770054	    -14.37037885	      3.06181564	    -16.00006352	     -3.55421913	     -2.74280045
      0.30000000	      5.44073028	     -0.67454329	     -1.93093924	      0.61907628	      1.04304174	     -0.01419519	     10.48053946	     -6.66891390	     -8.51494075	    -69.61983985	      0.95628260	      2.49369540	      2.06934669	     -2.30548839	    -13.26918726	      3.41605067	    -16.18466853	     -3.06721921	     -3.36025051
      0.31700000	      5.24139557	     -0.89426188	     -1.70726503	      0.61582050	      1.04387466	     -0.01539768	     12.92329388	     -5.90973230	     -8.09155811	    -69.24996164	      1.44036456	      1.26083526	      1.92782227	     -2.02278671	    -12.32435749	      3.78113107	    -16.13437660	     -2.76240382	     -3.85990335
      0.33300000	      5.15434321	     -1.45851108	     -1.08957852	      0.61348710	      1.04506591	     -0.01693760	     14.71354002	     -4.82275694	     -8.13914602	    -67.73138621	      1.68610488	     -0.11653440	      1.39895615	     -1.39644395	    -11.42265489	      4.20859579	    -16.29437874	     -1.98252118	     -4.34502984
      0.35000000	      4.93395380	     -1.73068586	     -0.80115838	      0.61023987	      1.04535694	     -0.01804905	     16.65669446	     -3.98401027	     -7.71732292	    -65.71016747	      2.00029713	     -1.28861405	      1.16442559	     -1.06853864	    -10.54617281	      4.60994403	    -16.33641847	     -1.53659002	     -4.68041883
      0.36700000	      4.98542306	     -2.02082916	     -0.66326580	      0.60718556	      1.04587682	     -0.01892821	     17.97686796	     -3.17699155	     -7.25856752	    -62.82832980	      2.28416371	     -2.84935742	      0.90045019	     -0.91806111	     -9.52027972	      4.94017187	    -16.55062999	     -1.14150907	     -4.70035152
      0.38300000	      5.02675933	     -2.10628443	     -0.91252846	      0.60472340	      1.04598139	     -0.02040110	     19.03027232	     -2.72277232	     -6.64438829	    -59.25913784	      2.52881469	     -4.53174904	      0.94820416	     -1.12096992	     -8.34439825	      5.16193832	    -16.78522228	     -0.92466366	     -4.83188060
      0.40000000	      4.92843424	     -1.94052600	     -0.96134333	      0.60151147	      1.04513545	     -0.02154144	     20.03732483	     -2.74317171	     -6.47507873	    -55.19030684	      2.75133621	     -5.89807026	      1.21747619	     -1.08110925	     -7.37497869	      5.41481889	    -16.82572690	     -0.89428279	     -4.80036026
      0.41700000	      4.90334809	     -1.83595981	     -0.83093612	      0.59880235	      1.04423316	     -0.02287855	     20.52771507	     -2.92234405	     -6.93858849	    -50.31912067	      2.75576304	     -7.35375077	      1.41448452	     -0.92686543	     -6.41378428	      5.67895946	    -17.11063674	     -0.83015351	     -5.08898502
      0.43300000	      4.81366711	     -1.49354008	     -0.88483074	      0.59653132	      1.04265982	     -0.02302835	     20.86149090	     -3.29161880	     -7.50645223	    -44.99828735	      2.65547488	     -8.79678880	      1.83172108	     -0.95337966	     -5.39122903	      5.93014294	    -17.14571711	     -1.15993537	     -5.09648589
      0.45000000	      4.93878465	     -1.03646155	     -0.77352680	      0.59439077	      1.04094349	     -0.02325748	     20.68645217	     -3.77619322	     -8.33733245	    -39.21473250	      2.38183516	    -10.37955910	      2.33807027	     -0.78276594	     -4.55505254	      6.28308503	    -17.37641873	     -1.53127798	     -5.23209078
      0.46700000	      4.79775807	     -0.32905024	     -0.72415161	      0.59188328	      1.03834564	     -0.02331091	     20.68332148	     -4.37366704	     -9.04962255	    -33.17216596	      1.96557930	    -11.55491732	      3.09704939	     -0.59884975	     -3.92753894	      6.68597059	    -17.32729485	     -2.23922096	     -5.38098504
      0.48300000	      4.73066586	     -0.01784115	     -0.28435702	      0.59057794	      1.03592053	     -0.02302025	     20.08273684	     -4.47223770	    -10.08380680	    -26.51757288	      1.42015542	    -13.05048802	      3.28513837	     -0.06220173	     -2.96916362	      6.99767308	    -17.30615670	     -2.44413049	     -5.70931485
      0.50000000	      4.59533873	      0.43012812	     -0.27106249	      0.58957276	      1.03288901	     -0.02165009	     19.54939639	     -4.39103000	    -10.18894545	    -19.91583427	      0.93645023	    -14.44899408	      3.66348090	      0.05287397	     -2.15802074	      7.36046563	    -17.14883747	     -2.94704969	     -5.49974980
      0.51700000	      4.45004633	      0.99627599	     -0.18526836	      0.58827481	      1.02934057	     -0.02087016	     19.06677271	     -4.44499339	     -9.63486054	    -13.70197112	      0.65371534	    -15.73242534	      4.16793487	      0.32026009	     -1.54022814	      7.78294614	    -17.03464759	     -3.42201596	     -5.65750933
